<!DOCTYPE svg PUBLIC "-//W3C//DTD SVG 1.1//EN" "http://www.w3.org/Graphics/SVG/1.1/DTD/svg11.dtd">
<!-- Uploaded to: SVG Repo, www.svgrepo.com, Transformed by: SVG Repo Mixer Tools -->
<svg fill="#000000" height="800px" width="800px" version="1.1" id="Layer_1" xmlns="http://www.w3.org/2000/svg" xmlns:xlink="http://www.w3.org/1999/xlink" viewBox="-143.36 -143.36 798.72 798.72" xml:space="preserve" stroke="#000000" stroke-width="0.00512">
<g id="SVGRepo_bgCarrier" stroke-width="0"/>
<g id="SVGRepo_tracerCarrier" stroke-linecap="round" stroke-linejoin="round"/>
<g id="SVGRepo_iconCarrier"> <g> <g> <path d="M424.739,219.012c-2.646-1.536-5.293-3.073-7.96-4.571c-3.879-2.18-8.795-0.803-10.975,3.08 c-2.18,3.881-0.801,8.795,3.08,10.975c2.601,1.461,5.18,2.958,7.759,4.456c0.419,0.243,0.28,0.163,0.001,0.001 c3.803,2.205,8.812,0.875,11.017-2.923C429.896,226.18,428.588,221.247,424.739,219.012z"/> </g> </g> <g> <g> <path d="M375.341,193.865c-29.819-16.191-60.003-31.412-89.192-46.134c-19.486-9.825-39.635-19.986-59.42-30.31 c-0.654-0.341-0.545-0.284-0.003-0.001c-3.945-2.057-8.813-0.528-10.872,3.419c-2.059,3.946-0.529,8.816,3.418,10.875 c19.885,10.374,40.084,20.561,59.619,30.412c29.082,14.665,59.154,29.83,88.757,45.906c4.147,2.252,9.47,0.362,11.287-3.981 C380.508,200.288,378.925,195.813,375.341,193.865z"/> </g> </g> <g> <g> <g> <path d="M509.931,237.174C509.929,237.166,509.929,237.166,509.931,237.174L509.931,237.174z"/> <path d="M509.931,237.174c0.02,0.097,0.295,1.425,0.999,4.825C513.662,255.185,510.008,237.548,509.931,237.174z"/> <path d="M510.93,241.999c-3.475-16.776-15.008-30.576-30.88-36.982l-90.118-44.653c-3.988-1.976-8.824-0.344-10.802,3.644 c-1.976,3.988-0.344,8.824,3.644,10.801l90.407,44.796c0.201,0.099,0.405,0.19,0.613,0.272 c11.139,4.408,18.921,13.664,21.352,25.392c2.429,11.725-1.034,23.307-9.503,31.775L298.547,464.138 c-8.471,8.471-20.057,11.936-31.789,9.506c-11.727-2.43-20.98-10.21-25.388-21.345c-0.082-0.207-0.173-0.412-0.272-0.613 L106.654,180.32l95.169-95.169l132.59,65.698c4.229,2.096,9.479,0.008,11.131-4.4c1.432-3.819-0.318-8.233-3.972-10.044 L213.74,73.063c9.732-11.601,9.153-28.975-1.751-39.88l-3.042-3.042c-11.522-11.521-30.268-11.52-41.792,0L51.648,145.651 c-5.582,5.582-8.657,13.005-8.657,20.901s3.074,15.319,8.656,20.901l3.041,3.041c5.582,5.582,13.003,8.656,20.895,8.656 c7.025,0,13.671-2.441,18.986-6.911l131.942,266.316c6.404,15.869,20.203,27.398,36.977,30.874 c3.47,0.719,6.959,1.072,10.42,1.072c13.388-0.001,26.346-5.27,36.038-14.963l187.096-187.095 C509.237,276.247,514.429,258.886,510.93,241.999z M85.08,179.096c-2.536,2.537-5.909,3.933-9.496,3.933s-6.96-1.397-9.496-3.934 l-3.042-3.041c-2.536-2.537-3.933-5.912-3.933-9.503s1.397-6.965,3.934-9.503L178.554,41.541c2.62-2.619,6.058-3.928,9.498-3.928 c3.438,0,6.878,1.31,9.496,3.927l3.041,3.041c5.239,5.239,5.239,13.765,0.001,19.004l-5.99,5.989 c-0.056,0.055-0.112,0.11-0.167,0.167L85.08,179.096z"/> </g> </g> </g> <g> <g> <path d="M361.802,318.86c-3.148-3.149-8.25-3.149-11.399-0.002L325.7,343.553l-12.913-12.913l12.542-12.549 c3.148-3.149,3.146-8.253-0.003-11.398c-3.15-3.148-8.254-3.146-11.398,0.003l-12.539,12.546l-12.921-12.921l24.695-24.704 c3.147-3.148,3.146-8.252-0.002-11.398c-3.15-3.148-8.253-3.146-11.399,0.002l-24.692,24.701l-12.922-12.92l12.539-12.539 c3.148-3.148,3.148-8.25,0-11.398c-3.148-3.148-8.25-3.149-11.399,0l-12.539,12.537l-12.92-12.92l24.702-24.693 c3.148-3.147,3.149-8.25,0.002-11.398c-3.148-3.149-8.25-3.149-11.399-0.002l-24.703,24.694l-12.914-12.914l12.542-12.549 c3.148-3.149,3.146-8.253-0.003-11.398c-3.148-3.148-8.252-3.147-11.398,0.003l-12.539,12.546l-12.921-12.921l24.695-24.704 c3.147-3.148,3.146-8.252-0.002-11.398c-3.15-3.148-8.253-3.146-11.399,0.002l-24.693,24.701l-15.578-15.578 c-3.149-3.148-8.252-3.148-11.399,0c-3.148,3.148-3.148,8.252,0,11.398l191.502,191.501c3.346,3.348,9.023,3.031,11.986-0.655 c2.544-3.164,2.281-7.876-0.589-10.744l-18.62-18.62l24.702-24.693C364.948,327.113,364.949,322.009,361.802,318.86z"/> </g> </g> <g> <g> <path d="M78.541,275.017c-1.529-1.703-3.71-2.677-5.999-2.677c-2.289,0-4.47,0.974-5.999,2.677C59.732,282.606,0,350.253,0,387.87 c0,40,32.542,72.542,72.542,72.542c40,0,72.542-32.542,72.542-72.542C145.085,350.254,85.353,282.606,78.541,275.017z M72.542,444.292c-31.11,0-56.422-25.31-56.422-56.422c0-23.982,36.459-71.76,56.422-95.207 c19.963,23.447,56.422,71.225,56.422,95.207C128.964,418.982,103.653,444.292,72.542,444.292z"/> </g> </g> <g> <g> <path d="M113.726,357.999c-2.268-3.831-7.211-5.096-11.041-2.832c-3.831,2.266-5.099,7.209-2.833,11.04 c4.209,7.112,10.619,20.863,6.271,33.052c-3.089,8.661-9.712,15.957-18.171,20.016c-4.795,2.302-10.125,3.519-15.413,3.522 c-4.451,0.002-8.058,3.612-8.056,8.063c0.002,4.45,3.61,8.057,8.06,8.057c0.001,0,0.003,0,0.004,0 c7.684-0.003,15.424-1.77,22.38-5.108c12.259-5.884,21.874-16.503,26.381-29.134C126.165,391.051,123.474,374.473,113.726,357.999 z"/> </g> </g> <g> <g> <path d="M98.722,335.506c-1.474-2.143-3.031-4.357-4.627-6.58c-2.598-3.617-7.634-4.444-11.249-1.85 c-3.616,2.595-4.445,7.631-1.85,11.248c1.535,2.138,3.029,4.263,4.442,6.318c1.564,2.272,4.085,3.493,6.649,3.493 c1.574,0,3.165-0.46,4.56-1.42C100.316,344.193,101.243,339.174,98.722,335.506z"/> </g> </g> </g>
</svg>