<!DOCTYPE svg PUBLIC "-//W3C//DTD SVG 1.1//EN" "http://www.w3.org/Graphics/SVG/1.1/DTD/svg11.dtd">
<!-- Uploaded to: SVG Repo, www.svgrepo.com, Transformed by: SVG Repo Mixer Tools -->
<svg fill="#000000" height="800px" width="800px" version="1.1" id="Layer_1" xmlns="http://www.w3.org/2000/svg" xmlns:xlink="http://www.w3.org/1999/xlink" viewBox="-163.84 -163.84 839.68 839.68" xml:space="preserve" stroke="#000000" stroke-width="0.00512">
<g id="SVGRepo_bgCarrier" stroke-width="0"/>
<g id="SVGRepo_tracerCarrier" stroke-linecap="round" stroke-linejoin="round"/>
<g id="SVGRepo_iconCarrier"> <g> <g> <path d="M511.219,498.392l-89.006-186.488v-52.699c0-4.427-3.589-8.017-8.017-8.017c-4.427,0-8.017,3.589-8.017,8.017v54.514 c0,1.195,0.267,2.375,0.781,3.453l22.075,46.251h-89.537l22.074-46.251c0.514-1.078,0.781-2.259,0.781-3.453V167.816h43.825 v56.117c0,4.427,3.589,8.017,8.017,8.017s8.017-3.589,8.017-8.017v-56.117h13.361c4.427,0,8.017-3.589,8.017-8.017 c0-4.427-3.589-8.017-8.017-8.017h-43.289V10.154c0-4.427-3.589-8.017-8.017-8.017h-64.134c-11.129,0-14.071,13.447-17.185,27.681 c-0.423,1.936-0.95,4.343-1.525,6.722c-0.576-2.383-1.104-4.793-1.529-6.732c-3.115-14.23-6.056-27.672-17.184-27.672 c-11.129,0-14.071,13.447-17.185,27.681c-0.423,1.932-0.948,4.331-1.521,6.705c-0.574-2.374-1.099-4.774-1.521-6.705 C259.371,15.584,256.43,2.137,245.3,2.137c-11.129,0-14.071,13.447-17.185,27.681c-0.423,1.932-0.948,4.331-1.521,6.705 c-0.574-2.374-1.099-4.774-1.521-6.705c-3.114-14.234-6.055-27.681-17.185-27.681c-11.123,0-14.062,13.442-17.173,27.674 c-0.423,1.934-0.948,4.336-1.522,6.712c-0.574-2.373-1.099-4.773-1.521-6.703c-3.114-14.236-6.055-27.682-17.185-27.682h-64.134 c-4.427,0-8.017,3.589-8.017,8.017v141.628H50.772c-4.427,0-8.017,3.589-8.017,8.017c0,4.427,3.589,8.017,8.017,8.017h17.637 v53.979c0,4.427,3.589,8.017,8.017,8.017s8.017-3.589,8.017-8.017v-53.979h43.825v141.992c0,3.49,2.258,6.578,5.582,7.638 c9.713,3.097,18.766,7.815,26.84,13.912H52.028c8.077-6.096,17.133-10.815,26.835-13.912c3.323-1.06,5.58-4.148,5.58-7.637V254.93 c0-4.427-3.589-8.017-8.017-8.017s-8.017,3.589-8.017,8.017v49.194c-16.503,6.302-31.211,16.654-42.8,30.177 C9.095,353.542,0,378.119,0,403.507c0,58.644,47.711,106.355,106.355,106.355c58.644,0,106.355-47.711,106.355-106.355 c0-24.717-8.656-48.716-24.362-67.704c-0.587-1.175-1.449-2.184-2.509-2.944c-11.392-12.826-25.615-22.664-41.538-28.737V167.816 h17.637c4.427,0,8.017-3.589,8.017-8.017c0-4.427-3.589-8.017-8.017-8.017h-47.566V18.171h53.606 c1.441,3.229,3.027,10.478,4.032,15.075c3.114,14.234,6.055,27.681,17.185,27.681c11.131,0,14.072-13.451,17.186-27.692 c0.421-1.924,0.943-4.314,1.515-6.678c0.572,2.369,1.096,4.762,1.517,6.688c3.114,14.235,6.055,27.682,17.183,27.682 c11.128,0,14.071-13.447,17.185-27.681c0.423-1.931,0.948-4.331,1.521-6.705c0.574,2.374,1.099,4.774,1.521,6.705 c3.115,14.234,6.056,27.681,17.185,27.681c11.128,0,14.071-13.447,17.185-27.681c0.423-1.931,0.948-4.332,1.522-6.706 c0.573,2.371,1.098,4.768,1.52,6.699c3.117,14.239,6.061,27.689,17.195,27.689c11.129,0,14.071-13.447,17.185-27.681 c1.005-4.595,2.591-11.845,4.032-15.075h53.606v133.612h-43.29c-4.427,0-8.017,3.589-8.017,8.017c0,4.427,3.589,8.017,8.017,8.017 h13.361v144.089l-89.006,186.488c-1.185,2.484-1.014,5.402,0.454,7.73c1.469,2.328,4.029,3.74,6.78,3.74h239.432 c2.752,0,5.312-1.412,6.78-3.74C512.232,503.794,512.403,500.875,511.219,498.392z M196.676,403.507 c0,49.803-40.518,90.321-90.321,90.321s-90.322-40.519-90.322-90.321c0-20.413,6.932-40.2,19.573-56.117h141.492 C189.732,363.291,196.676,383.107,196.676,403.507z M277.26,493.828l54.586-114.372h104.841l54.586,114.372H277.26z"/> </g> </g> <g> <g> <path d="M178.95,358.79c-2.32-3.771-7.257-4.95-11.029-2.628c-3.771,2.319-4.948,7.257-2.628,11.028 c12.992,21.125,13.624,49.164,1.571,69.771c-2.235,3.822-0.949,8.732,2.873,10.968c1.272,0.744,2.665,1.098,4.04,1.098 c2.755,0,5.436-1.422,6.927-3.97C195.895,419.084,195.207,385.222,178.95,358.79z"/> </g> </g> <g> <g> <path d="M164.372,455.171c-2.917-3.33-7.981-3.665-11.313-0.749c-1.906,1.669-3.955,3.238-6.091,4.664 c-3.682,2.458-4.674,7.437-2.215,11.119c1.546,2.314,4.085,3.566,6.674,3.566c1.53,0,3.076-0.437,4.444-1.351 c2.714-1.812,5.321-3.808,7.749-5.936C166.953,463.566,167.288,458.501,164.372,455.171z"/> </g> </g> <g> <g> <path d="M77.495,368.768H72.15c-4.427,0-8.017,3.589-8.017,8.017s3.589,8.017,8.017,8.017h5.344c4.427,0,8.017-3.589,8.017-8.017 S81.922,368.768,77.495,368.768z"/> </g> </g> <g> <g> <path d="M103.148,405.11h-5.344c-4.427,0-8.017,3.589-8.017,8.017c0,4.427,3.589,8.017,8.017,8.017h5.344 c4.427,0,8.017-3.589,8.017-8.017C111.165,408.699,107.576,405.11,103.148,405.11z"/> </g> </g> <g> <g> <path d="M49.704,406.179h-5.344c-4.427,0-8.017,3.589-8.017,8.017c0,4.427,3.589,8.017,8.017,8.017h5.344 c4.427,0,8.017-3.589,8.017-8.017C57.72,409.768,54.131,406.179,49.704,406.179z"/> </g> </g> <g> <g> <path d="M77.495,442.521H72.15c-4.427,0-8.017,3.589-8.017,8.017s3.589,8.017,8.017,8.017h5.344c4.427,0,8.017-3.589,8.017-8.017 S81.922,442.521,77.495,442.521z"/> </g> </g> <g> <g> <path d="M348.994,425.419h-5.344c-4.427,0-8.017,3.589-8.017,8.017s3.589,8.017,8.017,8.017h5.344 c4.427,0,8.017-3.589,8.017-8.017S353.421,425.419,348.994,425.419z"/> </g> </g> <g> <g> <path d="M377.854,468.175h-5.344c-4.427,0-8.017,3.589-8.017,8.017s3.589,8.017,8.017,8.017h5.344 c4.427,0,8.017-3.589,8.017-8.017S382.281,468.175,377.854,468.175z"/> </g> </g> <g> <g> <path d="M377.854,389.077h-5.344c-4.427,0-8.017,3.589-8.017,8.017c0,4.427,3.589,8.017,8.017,8.017h5.344 c4.427,0,8.017-3.589,8.017-8.017C385.871,392.666,382.281,389.077,377.854,389.077z"/> </g> </g> <g> <g> <path d="M440.919,468.175h-5.344c-4.427,0-8.017,3.589-8.017,8.017s3.589,8.017,8.017,8.017h5.344 c4.427,0,8.017-3.589,8.017-8.017S445.346,468.175,440.919,468.175z"/> </g> </g> <g> <g> <path d="M401.37,425.419h-5.344c-4.427,0-8.017,3.589-8.017,8.017s3.589,8.017,8.017,8.017h5.344c4.427,0,8.017-3.589,8.017-8.017 S405.797,425.419,401.37,425.419z"/> </g> </g> <g> <g> <path d="M315.858,468.175h-5.344c-4.427,0-8.017,3.589-8.017,8.017s3.589,8.017,8.017,8.017h5.344 c4.427,0,8.017-3.589,8.017-8.017S320.285,468.175,315.858,468.175z"/> </g> </g> <g> <g> <path d="M477.542,475.68c-2.613-5.54-5.242-11.073-7.87-16.605c-5.771-12.147-11.738-24.707-17.432-37.114 c-1.846-4.023-6.606-5.791-10.629-3.942c-4.027,1.846-5.791,6.606-3.944,10.629c5.737,12.503,11.728,25.113,17.521,37.307 c2.623,5.52,5.245,11.041,7.853,16.567c1.367,2.899,4.25,4.598,7.256,4.598c1.146,0,2.311-0.247,3.415-0.768 C477.716,484.461,479.431,479.685,477.542,475.68z"/> </g> </g> <g> <g> <path d="M440.349,395.584l-2.846-6.139c-1.863-4.018-6.629-5.765-10.645-3.9c-4.017,1.863-5.762,6.629-3.899,10.645l2.846,6.139 c1.356,2.926,4.252,4.646,7.278,4.646c1.129,0,2.276-0.241,3.367-0.746C440.466,404.366,442.212,399.6,440.349,395.584z"/> </g> </g> </g>
</svg>